# Blender v2.79 (sub 0) OBJ File: 'CardFront_invert_uv.blend'
# www.blender.org
o Cube
v 0.500000 0.888800 0.001000
v 0.500000 -0.888800 0.001000
v -0.500000 -0.888800 0.001000
v -0.500000 0.888800 0.001000
v 0.500000 0.888800 -0.001000
v 0.500000 -0.888800 -0.001000
v -0.500000 -0.888800 -0.001000
v -0.500000 0.888800 -0.001000
vt 0.000075 0.999922
vt 0.999940 0.000075
vt 0.999940 0.999922
vt 0.000075 0.000075
vt 0.000000 0.000000
vt 0.000000 0.000000
vt 0.000000 0.000000
vt 0.000000 0.000000
vt 0.000000 0.000000
vt 0.000000 0.000000
vt 0.000000 0.000000
vt 0.000000 0.000000
vn 0.0000 0.0000 1.0000
vn 0.0000 0.0000 -1.0000
vn -1.0000 0.0000 0.0000
vn 0.0000 1.0000 0.0000
vn 1.0000 0.0000 0.0000
vn 0.0000 -1.0000 0.0000
s off
f 8/1/1 6/2/1 5/3/1
f 8/1/1 7/4/1 6/2/1
f 2/5/2 4/6/2 1/7/2
f 5/8/3 2/5/3 1/7/3
f 6/9/4 3/10/4 2/5/4
f 7/11/5 4/6/5 3/10/5
f 1/7/6 8/12/6 5/8/6
f 2/5/2 3/10/2 4/6/2
f 5/8/3 6/9/3 2/5/3
f 6/9/4 7/11/4 3/10/4
f 7/11/5 8/12/5 4/6/5
f 1/7/6 4/6/6 8/12/6
